<?xml version="1.0" encoding="iso-8859-1"?>
<!-- Generator: Adobe Illustrator 16.0.0, SVG Export Plug-In . SVG Version: 6.00 Build 0)  -->
<!DOCTYPE svg PUBLIC "-//W3C//DTD SVG 1.1//EN" "http://www.w3.org/Graphics/SVG/1.1/DTD/svg11.dtd">
<svg version="1.1" id="Capa_1" xmlns="http://www.w3.org/2000/svg" xmlns:xlink="http://www.w3.org/1999/xlink" x="0px" y="0px"
	 width="485.213px" height="485.212px" viewBox="0 0 485.213 485.212" style="enable-background:new 0 0 485.213 485.212;"
	 xml:space="preserve">
<g>
	<path d="M45.491,394.237H15.162c-8.38,0-15.161-6.785-15.161-15.163c0-8.382,6.781-15.168,15.161-15.168h30.329
		c8.38,0,15.161,6.786,15.161,15.168C60.652,387.452,53.871,394.237,45.491,394.237z M485.212,60.651v363.908
		c0,33.5-27.158,60.653-60.649,60.653H90.979c-33.493,0-60.651-27.153-60.651-60.653h15.163c25.083,0,45.488-20.399,45.488-45.485
		c0-25.085-20.404-45.489-45.488-45.489H30.328V151.628h15.163c25.083,0,45.488-20.404,45.488-45.487
		c0-25.083-20.404-45.49-45.488-45.49H30.328C30.328,27.158,57.485,0,90.979,0h333.584C458.054,0,485.212,27.158,485.212,60.651z
		 M454.89,60.651c0-16.729-13.596-30.324-30.327-30.324H151.629v424.56h272.933c16.731,0,30.327-13.623,30.327-30.327V60.651z
		 M15.162,121.304h30.329c8.38,0,15.161-6.784,15.161-15.163c0-8.382-6.781-15.164-15.161-15.164H15.162
		c-8.38,0-15.161,6.781-15.161,15.164C0.001,114.521,6.782,121.304,15.162,121.304z M409.399,60.651H197.117
		c-8.38,0-15.161,6.784-15.161,15.166c0,8.38,6.781,15.161,15.161,15.161h212.282c8.382,0,15.163-6.781,15.163-15.161
		C424.562,67.435,417.781,60.651,409.399,60.651z M409.399,121.304H197.117c-8.38,0-15.161,6.781-15.161,15.163
		c0,8.38,6.781,15.161,15.161,15.161h212.282c8.382,0,15.163-6.781,15.163-15.161C424.562,128.085,417.781,121.304,409.399,121.304z
		 M409.399,181.955H197.117c-8.38,0-15.161,6.781-15.161,15.164c0,8.38,6.781,15.163,15.161,15.163h212.282
		c8.382,0,15.163-6.783,15.163-15.163C424.562,188.736,417.781,181.955,409.399,181.955z M409.399,242.606H197.117
		c-8.38,0-15.161,6.784-15.161,15.166s6.781,15.158,15.161,15.158h212.282c8.382,0,15.163-6.776,15.163-15.158
		S417.781,242.606,409.399,242.606z M409.399,303.257H197.117c-8.38,0-15.161,6.781-15.161,15.158
		c0,8.392,6.781,15.169,15.161,15.169h212.282c8.382,0,15.163-6.777,15.163-15.169C424.562,310.039,417.781,303.257,409.399,303.257
		z M318.424,363.906H197.117c-8.38,0-15.161,6.786-15.161,15.168c0,8.378,6.781,15.163,15.161,15.163h121.307
		c8.378,0,15.163-6.785,15.163-15.163C333.587,370.692,326.802,363.906,318.424,363.906z"/>
</g>
<g>
</g>
<g>
</g>
<g>
</g>
<g>
</g>
<g>
</g>
<g>
</g>
<g>
</g>
<g>
</g>
<g>
</g>
<g>
</g>
<g>
</g>
<g>
</g>
<g>
</g>
<g>
</g>
<g>
</g>
</svg>
